<svg enable-background="new 0 0 36 36" height="512" viewBox="0 0 36 36" width="512" xmlns="http://www.w3.org/2000/svg"><path d="m34.904 20.355c-3.782-5.791-3.38-11.727-5.203-14.518s-7.256-7.603-20.093.782-9.572 17.5-7.566 20.569c9.388 14.372 39.561 3.423 32.862-6.833z" fill="#efefef"/><circle cx="18" cy="18" fill="#f3f3f1" r="9.25"/><path d="m11 18c0-4.727 3.548-8.619 8.125-9.175-.37-.045-.743-.075-1.125-.075-5.109 0-9.25 4.141-9.25 9.25s4.141 9.25 9.25 9.25c.382 0 .755-.03 1.125-.075-4.577-.556-8.125-4.448-8.125-9.175z" fill="#d5dbe1"/><g fill="#a4afc1"><path d="m4.556 3.967h1v2h-1z" transform="matrix(.707 -.707 .707 .707 -2.031 5.029)"/><path d="m8.621 8.033h1v2h-1z" transform="matrix(.707 -.707 .707 .707 -3.716 9.093)"/><path d="m3.879 8.533h2v1h-2z" transform="matrix(.707 -.707 .707 .707 -4.958 6.096)"/><path d="m7.944 4.467h2v1h-2z" transform="matrix(.707 -.707 .707 .707 -.893 7.779)"/></g><circle cx="18" cy="18" fill="#2fdf84" r="4.25"/><path d="m16 18c0-1.955 1.328-3.585 3.125-4.08-.361-.099-.733-.17-1.125-.17-2.347 0-4.25 1.903-4.25 4.25s1.903 4.25 4.25 4.25c.392 0 .764-.07 1.125-.17-1.797-.495-3.125-2.125-3.125-4.08z" fill="#00b871"/><path d="m18 23c-2.757 0-5-2.243-5-5s2.243-5 5-5 5 2.243 5 5-2.243 5-5 5zm0-8.5c-1.93 0-3.5 1.57-3.5 3.5s1.57 3.5 3.5 3.5 3.5-1.57 3.5-3.5-1.57-3.5-3.5-3.5z"/><path d="m18 28c-5.514 0-10-4.486-10-10s4.486-10 10-10 10 4.486 10 10-4.486 10-10 10zm0-18.5c-4.687 0-8.5 3.813-8.5 8.5s3.813 8.5 8.5 8.5 8.5-3.813 8.5-8.5-3.813-8.5-8.5-8.5z"/><path d="m17.25 6.75h1.5v3.5h-1.5z"/><path d="m17.25 25.75h1.5v3.5h-1.5z"/><path d="m6.75 17.25h3.5v1.5h-3.5z"/><path d="m25.75 17.25h3.5v1.5h-3.5z"/></svg>